<svg xmlns="http://www.w3.org/2000/svg" viewBox="0 0 1440 64" preserveAspectRatio="none">
  <rect y="0" width="1440" height="6" fill="#6b0000"/>

  <!-- Drip 1 -->
  <path d="M60,6 C58,6 56,14 56,24 C56,32 58,38 60,42 C62,38 64,32 64,24 C64,14 62,6 60,6Z" fill="#8b0000"/>
  <ellipse cx="60" cy="43" rx="5" ry="6" fill="#a00000"/>

  <!-- Drip 2 -->
  <path d="M180,6 C177,6 174,18 174,34 C174,46 177,54 180,58 C183,54 186,46 186,34 C186,18 183,6 180,6Z" fill="#8b0000"/>
  <ellipse cx="180" cy="59" rx="6" ry="7" fill="#a00000"/>

  <!-- Drip 3 -->
  <path d="M310,6 C308,6 306,12 306,20 C306,27 308,32 310,35 C312,32 314,27 314,20 C314,12 312,6 310,6Z" fill="#8b0000"/>
  <ellipse cx="310" cy="36" rx="4" ry="5" fill="#a00000"/>

  <!-- Drip 4 -->
  <path d="M470,6 C467,6 464,22 464,40 C464,52 467,60 470,63 C473,60 476,52 476,40 C476,22 473,6 470,6Z" fill="#8b0000"/>
  <ellipse cx="470" cy="63" rx="7" ry="7" fill="#a00000"/>

  <!-- Drip 5 -->
  <path d="M600,6 C598,6 596,16 596,28 C596,38 598,45 600,49 C602,45 604,38 604,28 C604,16 602,6 600,6Z" fill="#8b0000"/>
  <ellipse cx="600" cy="50" rx="5" ry="6" fill="#a00000"/>

  <!-- Drip 6 -->
  <path d="M750,6 C748,6 746,10 746,18 C746,24 748,29 750,32 C752,29 754,24 754,18 C754,10 752,6 750,6Z" fill="#8b0000"/>
  <ellipse cx="750" cy="33" rx="4" ry="5" fill="#a00000"/>

  <!-- Drip 7 -->
  <path d="M900,6 C897,6 894,20 894,38 C894,50 897,58 900,62 C903,58 906,50 906,38 C906,20 903,6 900,6Z" fill="#8b0000"/>
  <ellipse cx="900" cy="62" rx="6" ry="7" fill="#a00000"/>

  <!-- Drip 8 -->
  <path d="M1060,6 C1058,6 1056,14 1056,26 C1056,35 1058,42 1060,46 C1062,42 1064,35 1064,26 C1064,14 1062,6 1060,6Z" fill="#8b0000"/>
  <ellipse cx="1060" cy="47" rx="5" ry="6" fill="#a00000"/>

  <!-- Drip 9 -->
  <path d="M1220,6 C1217,6 1214,24 1214,44 C1214,56 1217,63 1220,63 C1223,63 1226,56 1226,44 C1226,24 1223,6 1220,6Z" fill="#8b0000"/>
  <ellipse cx="1220" cy="63" rx="7" ry="7" fill="#a00000"/>

  <!-- Drip 10 -->
  <path d="M1380,6 C1378,6 1376,12 1376,22 C1376,30 1378,37 1380,41 C1382,37 1384,30 1384,22 C1384,12 1382,6 1380,6Z" fill="#8b0000"/>
  <ellipse cx="1380" cy="42" rx="5" ry="6" fill="#a00000"/>
</svg>
